<?xml version="1.0" encoding="utf-8"?>
<!-- Generator: Adobe Illustrator 22.0.0, SVG Export Plug-In . SVG Version: 6.00 Build 0)  -->
<svg version="1.1" id="Layer_1" xmlns="http://www.w3.org/2000/svg" xmlns:xlink="http://www.w3.org/1999/xlink" x="0px" y="0px"
	 viewBox="0 0 148.2 64.7" style="enable-background:new 0 0 148.2 64.7;" xml:space="preserve">
<style type="text/css">
	.st0{fill:#90D5D9;}
	.st1{clip-path:url(#SVGID_2_);}
	.st2{fill:#00B9BD;}
	.st3{clip-path:url(#SVGID_4_);}
	.st4{clip-path:url(#SVGID_6_);}
</style>
<g>
	<path class="st0" d="M68.8,40.8l-0.1-11.1c0-3.7,2.5-6.8,5.5-6.8l8.9,0h0c2.7,0,5,2.4,5.5,5.6h6.5c-0.5-6.7-5.7-12.1-12.1-12.1
		l-8.9,0c-3.2,0-6.3,1.4-8.5,4c-2.2,2.5-3.5,5.8-3.4,9.3l0.1,11H68.8z"/>
	<path class="st0" d="M88.8,32.6L88.9,45c0,3.7-2.5,6.8-5.5,6.8l-8.9,0c-3.1,0-5.6-3-5.6-6.7l0-0.2h-6.5l0,0.3
		c0.1,7.2,5.5,13.1,12.1,13.1l9,0c3.2,0,6.3-1.4,8.5-4c2.2-2.5,3.5-5.8,3.4-9.3l-0.1-12.3L88.8,32.6L88.8,32.6z"/>
</g>
<g>
	<g>
		<defs>
			<rect id="SVGID_1_" x="126.3" y="14.2" width="14.5" height="26.6"/>
		</defs>
		<clipPath id="SVGID_2_">
			<use xlink:href="#SVGID_1_"  style="overflow:visible;"/>
		</clipPath>
		<g class="st1">
			<g>
				<path class="st2" d="M147.5,57.2l-8.9,0c-6,0-10.9-5.3-11-12l-0.1-15.3c-0.1-6.6,4.8-12.1,10.8-12.1l8.9,0c6,0,10.9,5.3,11,12
					l0.1,15.3C158.3,51.7,153.5,57.1,147.5,57.2z M138.3,21.9c-3.7,0-6.7,3.6-6.7,7.9l0.1,15.3c0,4.4,3.1,7.9,6.8,7.9l8.9,0
					c3.7,0,6.7-3.6,6.7-8L154,29.8c0-4.4-3.1-7.9-6.8-7.8L138.3,21.9z"/>
				<path class="st2" d="M138.5,58.4c-6.6,0-12-5.9-12.1-13.1l-0.1-15.3c0-3.5,1.2-6.8,3.4-9.3c2.3-2.5,5.3-4,8.5-4l8.9,0
					c6.7,0,12.1,5.9,12.2,13.1l0.1,15.3c0,3.5-1.2,6.8-3.4,9.3c-2.3,2.5-5.3,4-8.5,4L138.5,58.4z M147.3,18.9l-9,0
					c-2.6,0-5,1.2-6.8,3.2c-1.9,2.1-2.9,4.8-2.8,7.8l0.1,15.3c0,6,4.4,10.8,9.8,10.8v1.2l0.1-1.2l8.9,0c2.6,0,5-1.2,6.8-3.2
					c1.9-2.1,2.9-4.8,2.8-7.8L157,29.7C157,23.8,152.6,18.9,147.3,18.9z M138.6,54.2c-4.4,0-7.9-4-8-9l-0.1-15.3
					c0-5,3.5-9.1,7.8-9.1l9,0c4.3,0,7.9,4,7.9,9l0.1,15.3c0,5-3.5,9.1-7.8,9.1L138.6,54.2z M147.3,21.9l0,1.2l-8.9,0
					c-3.1,0-5.5,3.1-5.5,6.8l0.1,15.3c0,3.7,2.5,6.7,5.6,6.7l8.9,0c3.1,0,5.6-3.1,5.5-6.8l-0.1-15.3c0-3.7-2.5-6.7-5.6-6.7
					L147.3,21.9L147.3,21.9z"/>
			</g>
		</g>
	</g>
</g>
<path class="st2" d="M7.8,40.7V4.6h6v12h6c3.3,0,6.1,1.2,8.5,3.5c2.4,2.4,3.5,5.2,3.5,8.5v12h-6v-12c0-1.7-0.6-3.1-1.8-4.2
	c-1.2-1.2-2.6-1.8-4.2-1.8h-6v18.1L7.8,40.7L7.8,40.7z"/>
<path class="st2" d="M101.8,37.2c-2.4-2.3-3.5-5.2-3.5-8.5c0-3.3,1.2-6.1,3.5-8.5c2.4-2.4,5.2-3.5,8.5-3.5c3.3,0,6.1,1.2,8.5,3.5
	c2.4,2.4,3.5,5.2,3.5,8.5v12h-6v-12c0-1.7-0.6-3.1-1.8-4.2c-1.2-1.2-2.6-1.8-4.2-1.8c-1.7,0-3.1,0.6-4.3,1.8
	c-1.2,1.2-1.8,2.6-1.8,4.2c0,1.7,0.6,3.1,1.8,4.3c1.2,1.2,2.6,1.8,4.3,1.8v6C107,40.7,104.1,39.5,101.8,37.2z"/>
<path class="st2" d="M55.8,20.2c-2.4-2.4-5.2-3.5-8.5-3.5c-3.3,0-6.2,1.2-8.5,3.5c-2.4,2.4-3.5,5.2-3.5,8.5c0,3.3,1.2,6.2,3.5,8.5
	c2.4,2.4,5.2,3.5,8.5,3.5h6h6v-6v-6C59.3,25.4,58.1,22.5,55.8,20.2z M47.3,34.7c-1.7,0-3.1-0.6-4.3-1.8c-1.2-1.2-1.8-2.6-1.8-4.3
	c0-1.7,0.6-3.1,1.8-4.2c1.2-1.2,2.6-1.8,4.3-1.8c1.7,0,3.1,0.6,4.2,1.8c1.2,1.2,1.8,2.6,1.8,4.2v6H47.3z"/>
<rect x="108.9" y="34.7" class="st2" width="12" height="6"/>
<path class="st2" d="M87.3,7.1H71.7c-1.8,0-3.2,1.5-3.2,3.5c0,2,1.4,3.5,3.2,3.5h15.6c1.8,0,3.2-1.5,3.2-3.5
	C90.5,8.6,89.1,7.1,87.3,7.1z"/>
<g>
	<g>
		<defs>
			<rect id="SVGID_3_" x="62.2" y="14.1" width="16.6" height="26.6"/>
		</defs>
		<clipPath id="SVGID_4_">
			<use xlink:href="#SVGID_3_"  style="overflow:visible;"/>
		</clipPath>
		<g class="st3">
			<g>
				<path class="st2" d="M83.4,57.1l-8.9,0c-6,0-10.9-5.3-11-12l-0.1-15.3c-0.1-6.6,4.8-12.1,10.8-12.1l8.9,0c6,0,10.9,5.3,11,12
					l0.1,15.3C94.3,51.6,89.4,57,83.4,57.1z M74.2,21.8c-3.7,0-6.7,3.6-6.7,7.9l0.1,15.3c0,4.4,3.1,7.9,6.8,7.9l8.9,0
					c3.7,0,6.7-3.6,6.7-8l-0.1-15.3c0-4.4-3.1-7.9-6.8-7.8L74.2,21.8z"/>
				<path class="st2" d="M74.4,58.3c-6.6,0-12-5.9-12.1-13.1l-0.1-15.3c0-3.5,1.2-6.8,3.4-9.3c2.3-2.5,5.3-4,8.5-4l8.9,0
					c6.7,0,12.1,5.9,12.2,13.1l0.1,15.3c0,3.5-1.2,6.8-3.4,9.3c-2.3,2.5-5.3,4-8.5,4L74.4,58.3z M83.2,18.8l-9,0
					c-2.6,0-5,1.2-6.8,3.2c-1.9,2.1-2.9,4.8-2.8,7.8l0.1,15.3c0,6,4.4,10.8,9.8,10.8v1.2l0.1-1.2l8.9,0c2.6,0,5-1.2,6.8-3.2
					c1.9-2.1,2.9-4.8,2.8-7.8l-0.1-15.3C92.9,23.6,88.5,18.8,83.2,18.8z M74.5,54.1c-4.4,0-7.9-4-8-9l-0.1-15.3c0-5,3.5-9.1,7.8-9.1
					l9,0c4.3,0,7.9,4,7.9,9L91.2,45c0,5-3.5,9.1-7.8,9.1L74.5,54.1z M83.2,21.8l0,1.2l-8.9,0c-3.1,0-5.5,3.1-5.5,6.8l0.1,15.3
					c0,3.7,2.5,6.7,5.6,6.7l8.9,0c3.1,0,5.6-3.1,5.5-6.8l-0.1-15.3c0-3.7-2.5-6.7-5.6-6.7L83.2,21.8L83.2,21.8z"/>
			</g>
		</g>
	</g>
</g>
<g>
	<g>
		<defs>
			<rect id="SVGID_5_" x="78.8" y="32.4" width="18.3" height="28.6"/>
		</defs>
		<clipPath id="SVGID_6_">
			<use xlink:href="#SVGID_5_"  style="overflow:visible;"/>
		</clipPath>
		<g class="st4">
			<g>
				<path class="st2" d="M83.4,57.1l-8.9,0c-6,0-10.9-5.3-11-12l-0.1-15.3c-0.1-6.6,4.8-12.1,10.8-12.1l8.9,0c6,0,10.9,5.3,11,12
					l0.1,15.3C94.3,51.6,89.4,57,83.4,57.1z M74.2,21.8c-3.7,0-6.7,3.6-6.7,7.9l0.1,15.3c0,4.4,3.1,7.9,6.8,7.9l8.9,0
					c3.7,0,6.7-3.6,6.7-8l-0.1-15.3c0-4.4-3.1-7.9-6.8-7.8L74.2,21.8z"/>
				<path class="st2" d="M74.4,58.3c-6.6,0-12-5.9-12.1-13.1l-0.1-15.3c0-3.5,1.2-6.8,3.4-9.3c2.3-2.5,5.3-4,8.5-4l8.9,0
					c6.7,0,12.1,5.9,12.2,13.1l0.1,15.3c0,3.5-1.2,6.8-3.4,9.3c-2.3,2.5-5.3,4-8.5,4L74.4,58.3z M83.2,18.8l-9,0
					c-2.6,0-5,1.2-6.8,3.2c-1.9,2.1-2.9,4.8-2.8,7.8l0.1,15.3c0,6,4.4,10.8,9.8,10.8v1.2l0.1-1.2l8.9,0c2.6,0,5-1.2,6.8-3.2
					c1.9-2.1,2.9-4.8,2.8-7.8l-0.1-15.3C92.9,23.6,88.5,18.8,83.2,18.8z M74.5,54.1c-4.4,0-7.9-4-8-9l-0.1-15.3c0-5,3.5-9.1,7.8-9.1
					l9,0c4.3,0,7.9,4,7.9,9L91.2,45c0,5-3.5,9.1-7.8,9.1L74.5,54.1z M83.1,22.9l-8.9,0c-3.1,0-5.6,3.1-5.5,6.8l0.1,15.3
					c0,3.7,2.5,6.7,5.6,6.7l8.9,0c3.1,0,5.6-3.1,5.5-6.8l-0.1-15.3C88.7,25.9,86.2,22.9,83.1,22.9L83.1,22.9L83.1,22.9z"/>
			</g>
		</g>
	</g>
</g>
</svg>
