<?xml version="1.0" encoding="UTF-8" standalone="no"?>
<!DOCTYPE svg PUBLIC "-//W3C//DTD SVG 1.1//EN" "http://www.w3.org/Graphics/SVG/1.1/DTD/svg11.dtd">
<svg width="100%" height="100%" viewBox="0 0 2727 1959" version="1.1" xmlns="http://www.w3.org/2000/svg" xmlns:xlink="http://www.w3.org/1999/xlink" xml:space="preserve" xmlns:serif="http://www.serif.com/" style="fill-rule:evenodd;clip-rule:evenodd;stroke-linejoin:round;stroke-miterlimit:2;">
    <g id="Artboard1" transform="matrix(1,0,0,1.01901,0,-104.969)">
        <rect x="0" y="103.01" width="2727" height="1921.69" style="fill:none;"/>
        <g transform="matrix(1,0,0,0.981342,-20.4933,10.0411)">
            <path d="M1327.71,1457.92C1328.07,1456.06 901.03,759.476 899.339,603.273C896.59,349.38 1095.83,165.76 1327.34,165.76C1558.85,165.76 1763.95,341.541 1755.29,603.929C1751.23,727.095 1519.71,1134.8 1399.1,1339.09C1387.29,1359.08 1360.11,1323.45 1350.75,1339.09C1326.44,1379.69 1327.88,1457.74 1327.71,1457.92ZM1328.84,362.224C1450.37,362.224 1549.03,460.888 1549.03,582.413C1549.03,703.939 1450.37,802.603 1328.84,802.603C1207.32,802.603 1108.65,703.939 1108.65,582.413C1108.65,460.888 1207.32,362.224 1328.84,362.224Z" style="fill:rgb(36,201,128);"/>
        </g>
        <g id="Color-Fill-1" serif:id="Color Fill 1" transform="matrix(1,0,0,0.981342,0,19.7957)">
            <path d="M1635.96,1416.58C1635.99,1424.4 1636,1430.21 1636,1432L1636.11,1399.81C1636.13,1383.69 1636.15,1367.56 1636.23,1367.56L1636.11,1399.81L1636.08,1421.93C1636.07,1424.36 1636.06,1426.8 1636.05,1429.23L1636,1432C1657.08,1430.52 1653.28,1433.12 1657,1431C1658.48,1429.01 1657.75,1355.61 1657.75,1352.37L1657.75,1312.64C1655.84,1310.79 1654.98,1309.13 1654.94,1305.63L1654.94,1302.12C1654.09,1300.12 1651.96,1300.83 1651.66,1297.84C1652.49,1297.46 1652.45,1297.35 1653.54,1297.06C1655.75,1298.58 1659.32,1298.92 1662.42,1298.62L1662.42,1297.84C1664.38,1295.31 1668.81,1283.2 1666.64,1277.59C1666.12,1276.24 1661.65,1269.19 1661.96,1267.46C1662.42,1264.82 1664.57,1260.66 1667.1,1259.67C1668.88,1258.98 1670.62,1259.33 1672.25,1258.5C1673.62,1257.81 1674.5,1255.68 1675.52,1254.61C1678.79,1251.19 1685.84,1248.99 1692.84,1248.76C1693.63,1247.7 1694.02,1247.79 1694.24,1246.04C1696.2,1243.55 1693.95,1238.79 1693.77,1236.3C1694.49,1235.87 1695.09,1235.3 1695.64,1234.74C1696.46,1234.99 1696.1,1234.82 1696.58,1235.13C1697.93,1235.85 1698.27,1236.07 1698.45,1237.86C1696.22,1239.7 1696.52,1246.45 1698.45,1248.37C1701.17,1250.37 1706.18,1250.62 1709.21,1252.27C1714.2,1254.99 1727.42,1266.61 1728.39,1272.13C1728.86,1274.78 1724.01,1280.76 1723.24,1283.04L1723.24,1295.89C1723.69,1297.06 1725.6,1298.22 1726.05,1299.4L1726.05,1304.46C1727.86,1308.16 1735.25,1308.28 1736.34,1312.64C1728.61,1316.77 1728.3,1326.83 1728.39,1337.57C1729.07,1337.9 1729.73,1338.27 1730.26,1338.73L1744.77,1338.73C1747.2,1335.36 1746.17,1327.63 1746.17,1322.38L1746.17,1283.43C1745.35,1282.41 1742.77,1277.55 1742.43,1276.42L1742.43,1272.52C1740.82,1268.48 1737.34,1269.74 1737.28,1262.79C1738.09,1262.55 1738.75,1262.44 1740.09,1262.39C1741.59,1263.32 1745.43,1264.95 1747.57,1265.12C1749.91,1261.37 1753.44,1249.18 1751.32,1242.14C1750.87,1240.68 1749.42,1239.19 1748.98,1237.86C1748.82,1236.17 1748.66,1234.48 1748.51,1232.8C1748.23,1232.17 1746.83,1231.09 1746.64,1230.46C1746.14,1228.84 1747.81,1225.98 1748.51,1224.62C1750.58,1220.59 1754.57,1220.16 1758.33,1217.61C1759.39,1216.89 1759.83,1215.42 1760.67,1214.49C1762.55,1212.41 1766.25,1210.27 1769.09,1209.04C1771.99,1207.78 1780.19,1207.54 1781.72,1205.14C1785.24,1201.47 1781.34,1197.4 1780.79,1194.24C1782.63,1192.49 1782.19,1190.27 1785.93,1189.95C1786.41,1190.27 1786.06,1190.09 1786.87,1190.34C1787.84,1192.28 1789.01,1193.29 1789.21,1195.79C1786.47,1197.35 1787.26,1202.05 1787.81,1205.14C1793.71,1208.3 1800.72,1210.83 1805.58,1214.88C1809.07,1217.78 1810.57,1221.59 1813.54,1225.01C1817.23,1229.26 1818.64,1226.61 1820.56,1233.96C1821.68,1238.29 1818.71,1239.5 1817.75,1241.75C1816.19,1245.4 1814.44,1256.48 1815.88,1261.62C1817.66,1267.99 1822.35,1273.21 1825.23,1278.75C1826.06,1280.34 1827.66,1283.74 1826.17,1285.76C1825.45,1287.45 1823.86,1287.63 1822.89,1288.88C1821.9,1290.17 1822.7,1291.48 1821.96,1293.16C1821.4,1294.43 1819.2,1295.44 1818.68,1296.67C1818.53,1299.01 1818.37,1301.34 1818.22,1303.68C1818.97,1303.9 1819.34,1303.99 1820.56,1304.07C1825.38,1297.73 1833.73,1293.51 1840.2,1288.49C1839.29,1285.57 1838.34,1283.15 1838.33,1278.75C1844.96,1274.84 1843.48,1265.17 1843.48,1255.77C1843.48,1251.13 1844.38,1245.39 1843.01,1241.36C1841.95,1238.26 1838.81,1232.34 1840.67,1226.95C1841.23,1225.34 1843.29,1223.89 1843.95,1222.28C1844.42,1221.11 1843.66,1219.99 1844.41,1219.16C1845.41,1218.07 1848.64,1218.38 1850.03,1217.61C1851.73,1215.23 1849.56,1210.52 1850.5,1207.48C1851.34,1204.74 1853.41,1202.7 1854.24,1199.69L1854.24,1193.07C1854.71,1189.82 1855.18,1186.58 1855.64,1183.33C1863.68,1156.85 1880.3,1139.87 1912.72,1133.87C1913.78,1132.58 1915.61,1131.36 1916.46,1129.97C1917.89,1127.64 1918.66,1118.61 1916.93,1116.73C1915.59,1115.92 1913.78,1116.68 1911.32,1116.34L1911.32,1115.17C1913.5,1114.99 1913.97,1115.08 1916.46,1115.17C1917.28,1113.9 1917.45,1112.35 1917.4,1110.11C1917.92,1109.57 1918.1,1108.99 1918.33,1108.16L1919.74,1108.16L1919.74,1108.94C1920.54,1109.99 1920.52,1113.47 1920.67,1114.78C1921.49,1115.03 1921.13,1114.86 1921.61,1115.17C1923.58,1114.83 1925.16,1114.95 1927.22,1115.17L1927.22,1116.34C1924.86,1116.55 1923.89,1116.41 1921.14,1116.34C1920.99,1116.73 1920.83,1117.12 1920.67,1117.51C1917.56,1121.66 1922.13,1131.77 1924.42,1133.09C1926.57,1134.33 1928.44,1133.93 1931.43,1134.64C1936.58,1136.46 1941.73,1138.28 1946.87,1140.1C1960.87,1147.14 1972.53,1157.76 1978.69,1171.26C1981.6,1177.64 1981.94,1184.63 1983.83,1191.9C1984.74,1195.37 1982.97,1199.42 1984.3,1202.41C1984.84,1203.62 1986.6,1204.89 1987.11,1206.31C1988.36,1209.83 1985.85,1215.19 1988.04,1217.61C1989.27,1218.33 1991.97,1218.51 1993.66,1218.77C1994.49,1224.53 2000.15,1227.41 1997.87,1235.52C1997.17,1237.99 1995.3,1240.02 1994.59,1242.14C1993.37,1245.79 1994.59,1248.99 1994.59,1253.05L1994.59,1272.52C1995.55,1275.91 1998.68,1277.21 1999.74,1279.92C2001.17,1283.6 1998.33,1286.15 1997.87,1288.49C2002.74,1292.24 2008.17,1295.48 2012.84,1299.4C2014.78,1301.02 2015.77,1303.88 2018.92,1304.46C2019.35,1303.42 2019.41,1301.76 2019.39,1300.17C2018.59,1298.99 2019.91,1298.57 2019.39,1297.06C2018.9,1295.67 2016.69,1294.81 2016.11,1293.55C2015.96,1292.26 2015.8,1290.96 2015.64,1289.66C2014,1286.13 2011.45,1288.04 2011.43,1281.48C2013.51,1279.3 2014.23,1276.39 2015.64,1273.69C2018.54,1268.17 2024.71,1261.14 2022.19,1251.49C2021.39,1248.39 2021.49,1245.53 2020.32,1242.14C2019.15,1238.73 2015.66,1235.03 2018.45,1229.68C2019.6,1227.48 2022.94,1226.82 2024.53,1225.01C2025.7,1223.67 2025.79,1222.21 2026.87,1220.72C2029.37,1217.28 2034.21,1213.31 2038.1,1210.98C2041.61,1208.89 2049.6,1207.9 2050.26,1203.58C2052.8,1200.73 2050.38,1196.87 2048.39,1195.4C2049.44,1193.04 2050.03,1190.07 2054.01,1189.95C2054.93,1191.27 2055.99,1193.52 2057.28,1194.62C2056.37,1197.11 2053.15,1201.01 2055.88,1204.36C2056.37,1205.56 2056.33,1205.5 2057.75,1205.92C2060.24,1207.48 2064.67,1207.02 2067.57,1208.26C2070.48,1209.49 2074.99,1211.97 2076.93,1214.1C2077.98,1215.25 2078.82,1217.18 2080.21,1217.99C2081.22,1218.59 2082.3,1218.25 2083.48,1218.77C2086.96,1220.33 2090.33,1225.1 2091.43,1228.51C2091.74,1229.46 2087.72,1238.94 2087.22,1240.19C2084.94,1246.03 2086.24,1255.76 2088.63,1260.06C2089.58,1261.78 2088.62,1263.76 2090.5,1264.73C2093,1265.95 2096.72,1262.82 2099.86,1262.39C2100.53,1263.43 2100.79,1264.04 2100.79,1265.9C2100.28,1266.49 2100.38,1267.56 2099.86,1268.24C2098.96,1269.4 2096.32,1270.48 2095.65,1271.74C2095.49,1273.69 2095.33,1275.64 2095.18,1277.59C2094.55,1279.12 2092.48,1280.53 2091.9,1282.26L2091.9,1337.95C2092.37,1338.09 2092.84,1338.21 2093.31,1338.34C2095.09,1339.34 2106.02,1339.34 2107.81,1338.34C2110.95,1337.37 2109.83,1329.79 2109.68,1326.27C2109.25,1325.69 2109.6,1324.85 2109.21,1323.93C2108.77,1322.9 2107.27,1321.59 2106.87,1320.43L2106.87,1316.92C2106.28,1315.28 2104.06,1313.7 2102.66,1312.64C2103.89,1308.55 2108.69,1308.5 2111.09,1305.63C2112.48,1303.95 2111.11,1301.77 2112.02,1299.4C2112.53,1298.08 2114.35,1296.57 2114.83,1295.11C2118.36,1284.45 2106.14,1274.33 2111.55,1267.85C2112.55,1265.59 2115.16,1264.9 2116.7,1263.17C2120.72,1258.66 2124.47,1254.47 2130.27,1251.49C2133.04,1250.06 2138.85,1249.86 2140.09,1247.2C2143.22,1243.07 2136.44,1235.79 2142.9,1235.13C2143.63,1236.06 2144.26,1236.27 2144.77,1237.47C2141.69,1240.03 2143.32,1244.76 2144.3,1247.98C2148.32,1249.84 2154.57,1249.92 2158.34,1251.88C2161.41,1253.48 2162.96,1256.92 2165.82,1258.5C2166.94,1259.12 2168.24,1258.8 2169.57,1259.28C2172.51,1260.35 2174.79,1263.13 2175.65,1265.9C2176.83,1269.69 2172.32,1274.91 2171.44,1277.19C2170.44,1279.76 2171.45,1290.56 2172.37,1292C2172.8,1292.66 2174.35,1293.12 2174.71,1293.94C2175.7,1296.17 2174.13,1297.63 2176.58,1298.62C2178.72,1299.67 2182.98,1297.65 2185.94,1297.45C2186.35,1297.91 2186.32,1297.89 2186.88,1298.23C2186.58,1298.91 2186.78,1298.61 2186.41,1299.01C2184.78,1302.44 2183.06,1299.93 2183.13,1306.41C2179.69,1310.94 2180.32,1318.87 2180.32,1326.27L2180.32,1367.56L2180.79,1367.56L2180.79,1367.94C2186.96,1368.6 2194.54,1368.22 2200.91,1368.33C2204.03,1368.39 2207.98,1368.63 2209.8,1367.56C2211.28,1365.55 2210.27,1355.62 2210.27,1352.37L2210.27,1161.91C2209.2,1160.79 2208.94,1159.16 2207.93,1158.01C2204.73,1154.39 2200.1,1154.49 2199.97,1147.89C2201.38,1147.11 2202.78,1146.33 2204.18,1145.55L2204.18,1123.35C2204.65,1123.22 2205.12,1123.09 2205.59,1122.96C2209.7,1120.13 2218.68,1121.82 2222.9,1119.07C2224.43,1117.25 2223.13,1114.4 2223.83,1111.67C2225.8,1103.96 2224.35,1093.26 2224.3,1084.79C2221.76,1083.58 2218.39,1082.64 2218.22,1079.34C2219.71,1078.21 2221.15,1076.74 2222.9,1075.83C2224.69,1074.91 2226.81,1074.84 2228.05,1073.5C2231.34,1069.91 2233.99,1066.03 2238.34,1063.37C2241.42,1061.48 2247.64,1060.77 2250.03,1058.31C2253.53,1054.4 2247.29,1050.9 2249.1,1046.23C2250.15,1043.51 2253.76,1041.94 2254.71,1038.83L2254.71,1030.26C2254.71,1021.55 2253.37,1010.98 2255.18,1003L2256.12,1003L2256.12,1034.94C2257.26,1036.49 2256.22,1039.78 2257.05,1041.56C2257.9,1043.37 2260.57,1045.33 2261.26,1047.4C2261.97,1049.54 2259.83,1051.88 2259.39,1053.63C2259.55,1055.06 2259.7,1056.49 2259.86,1057.92C2263.92,1060.23 2269.45,1061.69 2273.43,1064.15C2275.8,1065.62 2279.25,1068.74 2280.91,1070.77C2281.99,1072.09 2282.19,1073.78 2283.72,1074.66C2287.35,1076.78 2291.84,1076.32 2292.14,1081.29C2290.69,1082.03 2288.06,1083.28 2286.99,1084.4C2285.57,1085.92 2286.06,1089.53 2286.06,1092.19C2286.06,1099.04 2285.42,1106.44 2286.99,1112.44C2287.75,1115.32 2286.2,1117.55 2288.4,1119.07C2292,1121.34 2299.87,1121.72 2304.77,1122.57C2306.84,1128.53 2305.74,1138.26 2305.71,1145.55C2308.02,1146.55 2310.55,1147.04 2310.85,1149.84C2310.23,1150.57 2310.53,1151.66 2309.92,1152.56C2307.76,1155.76 2302.16,1156.88 2300.56,1160.74L2300.56,1211.37C2300.4,1245.12 2300.25,1278.89 2300.09,1312.64L2300.09,1350.03C2300.09,1355.68 2299.03,1363.6 2301.03,1367.94C2311.72,1368.94 2324.23,1367.94 2336.12,1367.94C2356.28,1367.94 2376.12,1367.95 2396,1367.94L2396,1477L723,1477L723,1461.51C708.503,1456.57 670.819,1444.61 625.439,1436.99L595.772,1469.77L538.693,1469.76L505.06,1435.06C442.243,1445.17 383.395,1468.3 383.395,1468.3L297.545,1470.5L554.742,1185.01L554.52,1146.36L580.203,1146.72L580.885,1184.91L724.871,1344.54L724.871,1343.8C727.606,1342.6 733.319,1342.97 737.503,1343.02C739.959,1339.01 738.439,1320.22 738.439,1313.81L738.439,1242.14C741.793,1240.71 748.989,1241.36 753.877,1241.36L788.03,1241.36C788.919,1241.71 789.665,1241.37 790.837,1240.97C791.772,1238.68 791.342,1234.58 791.305,1231.63C790.456,1230.1 792.666,1227.83 793.176,1226.17L793.176,1212.15C793.658,1210.83 795.447,1209.89 795.983,1208.65C796.907,1206.51 795.41,1205.99 797.854,1205.14C798.902,1204.6 799.387,1204.93 800.662,1205.14L800.662,1205.92C802.496,1208.43 799.644,1212.61 800.662,1216.05C801.764,1219.77 803.681,1223.17 803.936,1228.12C808.447,1230.06 823.04,1228.94 829.668,1228.9C830.136,1227.77 830.163,1225.91 830.136,1224.23C826.071,1219.39 831.512,1209.85 832.475,1206.31C833.301,1205.93 833.261,1205.82 834.346,1205.53L834.346,1205.92C835.331,1206.62 835.283,1207.06 835.282,1208.65C838.6,1213 835.677,1225.59 838.089,1228.51C840.623,1229.81 853.617,1228.9 857.738,1228.9L1104.29,1228.9C1104.77,1228.59 1104.42,1228.76 1105.23,1228.51C1105.78,1222.97 1103.73,1206.55 1110.37,1205.92C1110.53,1206.31 1110.68,1206.7 1110.84,1207.09C1111.65,1208.11 1111.07,1209.73 1111.78,1210.98C1112.24,1211.24 1112.71,1211.5 1113.18,1211.76C1115.98,1216.4 1112.41,1223.59 1112.24,1228.51C1118.02,1230.11 1130.94,1228.93 1137.98,1228.9C1138.62,1227.91 1138.87,1227.54 1138.91,1225.78C1139.49,1225.01 1139.01,1223.87 1139.38,1222.67C1140.31,1220.2 1141.25,1217.73 1142.19,1215.27C1142.03,1212.15 1141.87,1209.04 1141.72,1205.92C1142.99,1205.26 1142.89,1204.93 1144.99,1204.75C1147.96,1208.1 1148.41,1212.35 1149.67,1217.21C1150.7,1221.2 1147.94,1224.64 1149.67,1228.12C1149.86,1228.49 1151.37,1229.3 1151.54,1229.68C1152.09,1230.9 1151,1238.61 1151.54,1240.97C1155.82,1242.15 1163.23,1241.36 1168.38,1241.36L1203.47,1241.36C1205.93,1245.37 1204.41,1264.16 1204.41,1270.57L1204.41,1342.24C1204.79,1342.64 1204.58,1342.35 1204.88,1343.02L1217.04,1343.02L1217.04,1343.8C1218.06,1345.17 1217.51,1348.74 1217.51,1350.81C1217.51,1356.35 1216.88,1363.06 1217.98,1367.94C1221.29,1368.28 1225.39,1368.16 1228.74,1367.94C1228.88,1363.31 1230.81,1351.67 1228.74,1346.13C1228.22,1344.75 1225.34,1343.09 1226.4,1340.68C1226.75,1339.87 1228.35,1338.61 1228.74,1337.57C1230.23,1333.53 1229.2,1325.69 1229.2,1319.26L1229.2,1280.7C1229.2,1272.24 1230.51,1261.94 1228.74,1254.22C1226.77,1253.94 1224.24,1253.59 1222.65,1253.05C1222.03,1251.94 1221.53,1251.43 1221.25,1249.93C1224.11,1248.79 1226.48,1249.12 1226.4,1245.26C1228.42,1242.64 1227.33,1235.94 1227.33,1232.02L1227.33,1198.52C1227.33,1195.48 1228.27,1186.36 1226.87,1184.5C1225.68,1182 1223.29,1182.77 1223.12,1179.05C1229.66,1175.57 1227.8,1168.83 1227.8,1160.35L1227.8,1134.64C1227.36,1133.5 1225.42,1132.59 1224.99,1131.53C1225.31,1126.34 1225.62,1121.14 1225.93,1115.95C1226.89,1112.99 1229.31,1109.7 1232.01,1108.16C1233.46,1107.34 1235.25,1107.39 1236.22,1106.21C1237.31,1103.49 1238.4,1100.76 1239.5,1098.03C1242.82,1092.57 1247.46,1085.32 1253.06,1081.67C1256.56,1079.4 1260.9,1077.27 1265.23,1075.83C1267.81,1074.97 1271.9,1075.49 1274.12,1074.28C1274.49,1073.88 1274.28,1074.17 1274.59,1073.5C1275.89,1071.87 1275.04,1066.67 1274.59,1064.93C1273.4,1064.63 1270.02,1064.71 1268.97,1064.15C1268.6,1063.69 1268.61,1063.49 1268.5,1062.59C1269.91,1062.46 1271.31,1062.33 1272.71,1062.2C1273.72,1060.64 1274.65,1058.8 1275.99,1057.53C1276.81,1057.77 1276.44,1057.6 1276.92,1057.92C1278.33,1058.91 1278.31,1060.83 1279.73,1061.81C1280.77,1062.36 1284.1,1062.4 1285.35,1062.59L1285.35,1063.76C1283.88,1064.38 1280.65,1064.41 1278.8,1064.93C1278.33,1067.62 1277.41,1072.72 1279.73,1074.28C1281.26,1075.09 1283.25,1074.55 1285.35,1075.05C1288.83,1075.9 1293.25,1077.67 1296.11,1079.34C1302.95,1083.34 1309.51,1090.92 1312.95,1097.64C1314.04,1100.37 1315.13,1103.1 1316.22,1105.82C1317.42,1107.35 1319.53,1107.5 1321.37,1108.55C1323.88,1109.99 1326.12,1113.58 1326.98,1116.34C1328.15,1120.05 1325.94,1123.59 1326.98,1127.25C1328.46,1132.4 1325.5,1131.87 1324.18,1136.2L1324.18,1149.06C1324.17,1156.08 1322.76,1171.59 1325.11,1175.93C1325.85,1177.29 1328.48,1178.82 1329.79,1179.83C1328.81,1182.28 1325.93,1182.92 1325.11,1185.28C1325.27,1199.82 1325.42,1214.36 1325.58,1228.9C1326.33,1229.12 1326.7,1229.21 1327.92,1229.29C1328.28,1229.02 1328.96,1228.78 1329.32,1228.51C1330.72,1227.21 1330.07,1225.1 1331.19,1223.45C1332.48,1221.56 1336.41,1220.72 1338.68,1219.55C1345.19,1216.2 1350.03,1212.3 1358.8,1210.59C1367.83,1208.83 1379.57,1212.66 1387.8,1210.2C1390.83,1209.3 1393.78,1206.73 1396.22,1205.14C1396.85,1204.49 1397.47,1203.84 1398.1,1203.19C1399.97,1202.93 1401.84,1202.67 1403.71,1202.41C1406.99,1201.39 1410.56,1199.45 1414,1198.52C1418.73,1197.25 1424.63,1197.63 1428.97,1196.18C1430.59,1193.26 1430.86,1187.25 1429.91,1183.33C1428.34,1182.91 1425.02,1182.82 1423.36,1182.55C1423.11,1181.96 1423.04,1181.89 1422.89,1180.99C1424.14,1180.43 1424.87,1180.22 1427.1,1180.21C1427.65,1180.53 1427.89,1180.52 1428.97,1180.6C1430.29,1178.33 1429.4,1174.7 1433.18,1174.37C1433.71,1174.97 1433.69,1174.7 1434.12,1175.54C1434.74,1176.32 1434.63,1178.08 1434.59,1179.43C1435.74,1180.03 1435.65,1180.33 1437.39,1180.6C1438.54,1179.96 1439.85,1180.36 1441.14,1180.6C1441.59,1181.29 1441.72,1181.26 1442.07,1182.16L1441.6,1182.16C1439.8,1183.46 1436.76,1182.41 1434.59,1182.94C1434.1,1186.66 1433.3,1193.04 1435.52,1195.79C1437.49,1198.23 1446.28,1197.64 1450.03,1198.52C1453.8,1199.41 1457.38,1201.26 1460.79,1202.41C1462.66,1202.67 1464.53,1202.93 1466.4,1203.19C1470.48,1204.79 1472.76,1209.45 1477.63,1210.59L1485.58,1210.59C1494.26,1210.59 1505.21,1209.69 1511.78,1211.76C1515.96,1213.08 1519.11,1216.08 1522.54,1217.99C1525.59,1219.69 1529.09,1220.4 1531.9,1222.28C1534.42,1223.97 1532.93,1228.01 1536.58,1228.9C1537.42,1229.25 1537.42,1229.02 1538.91,1228.9C1539,1219.11 1539.38,1208.13 1539.38,1197.74L1539.38,1184.89C1538.42,1182.23 1535.47,1182.83 1535.17,1179.05C1543.28,1174.73 1540.32,1157.84 1540.32,1147.11L1540.32,1136.2C1539.66,1134.01 1535.87,1131.72 1536.58,1129.19C1536.67,1128.87 1537.85,1127.65 1537.98,1127.25C1538.48,1125.69 1537.74,1123.13 1537.51,1122.18C1536.91,1119.71 1537.95,1115.15 1538.91,1113.22C1540.96,1109.15 1546.25,1108.73 1548.27,1106.21C1548.74,1104.79 1549.21,1103.36 1549.67,1101.93C1550.95,1099.11 1552.49,1095.75 1554.35,1092.97C1558.03,1087.49 1566.41,1079.54 1573.54,1077C1577.35,1075.64 1582.14,1075.58 1586.17,1074.28C1586.47,1071.89 1586.37,1067.68 1585.7,1064.93C1583.51,1064.38 1581.69,1064.82 1579.62,1064.15C1579.46,1063.76 1579.31,1063.37 1579.15,1062.98C1579.62,1062.85 1580.09,1062.72 1580.55,1062.59C1581.53,1062.1 1584.26,1062.32 1585.23,1061.81C1586.82,1059.89 1585.45,1058.07 1589.44,1057.92C1591.73,1061.62 1590.84,1061.19 1595.99,1062.59C1596.23,1063.72 1596.57,1063.3 1595.52,1064.15C1593.37,1065.18 1591.08,1064.17 1589.91,1066.1C1588.68,1067.62 1589.48,1072.26 1589.91,1073.89C1592.66,1074.86 1596.79,1074.8 1599.73,1075.83C1608.29,1078.82 1616.3,1084.63 1620.79,1091.02C1622.62,1093.64 1624.69,1096.94 1625.93,1099.59C1626.97,1101.81 1626.8,1103.95 1628.27,1105.82C1629.93,1107.93 1633.96,1108.5 1635.76,1110.5C1639.76,1114.94 1639.09,1123.07 1639.97,1129.19C1640.33,1131.71 1637.37,1133.02 1636.69,1134.64L1636.69,1174.76C1637.75,1177.85 1641.48,1177.28 1641.84,1180.99C1635.47,1184.41 1637.16,1190.22 1637.16,1198.52L1637.16,1230.07C1637.16,1236.72 1636.76,1243.62 1639.03,1248.37C1641.02,1249.01 1643.2,1249.05 1643.71,1251.1C1642.55,1251.83 1641.87,1253.38 1640.44,1253.83C1638.59,1254.4 1636.59,1253.27 1635.76,1254.61L1635.76,1337.57C1636.84,1338.58 1638.7,1341.17 1638.1,1342.24C1637.58,1343.85 1636.23,1344.76 1635.76,1346.13C1635.76,1347.92 1635.77,1353.73 1635.8,1361.56L1635.96,1416.58ZM354.876,1443.01L545.275,1230.7L552.548,1202.79L325.216,1455.5L354.876,1443.01ZM1966.99,1448.96L1993.66,1448.96C1993.85,1440.49 1993.65,1430.12 1993.66,1420.53C1993.66,1414.88 1994.03,1409.46 1991.32,1406.11C1987.16,1400.99 1978.23,1402.69 1971.67,1404.17C1970.5,1405.7 1968.66,1406.98 1967.92,1408.84C1967.77,1410.92 1967.61,1413 1967.46,1415.07C1966.65,1418.21 1966.99,1422.98 1966.99,1426.76L1966.99,1448.96ZM1906.17,1448.96L1932.84,1448.96L1932.84,1418.97C1932.84,1412.11 1932.32,1405.5 1926.29,1403.78C1923.03,1401.57 1914.89,1402.04 1911.32,1403.78C1909.57,1404.62 1908.52,1406.87 1907.11,1408.06C1906.05,1420.37 1906.19,1435.42 1906.17,1448.96ZM1843.95,1448.96L1871.08,1448.96C1870.64,1442.56 1870.58,1434.98 1870.61,1425.59C1870.63,1422 1871.75,1418.92 1870.61,1415.07C1869.16,1410.14 1870.91,1405.74 1865.47,1404.17C1860.55,1400.18 1848.08,1402.79 1846.29,1407.28C1843.63,1410.12 1843.95,1415.53 1843.95,1420.53L1843.95,1448.96ZM2328.63,1448.96L2359.98,1448.96C2360.14,1439.44 2359.51,1427.54 2359.51,1413.9C2357.09,1412.55 2354.46,1410.51 2351.55,1409.62C2342.66,1406.9 2334.56,1410.75 2329.1,1413.12C2327.59,1424.17 2328.62,1437.24 2328.63,1448.96ZM920.429,1374.95C919.505,1375.43 918.101,1375.01 916.686,1375.35C912.141,1376.41 907.776,1379 905.458,1381.97C903.915,1383.94 901.551,1388.49 902.651,1392.09C902.878,1392.84 903.887,1393.46 903.587,1394.82C902.376,1400.3 902.651,1408.37 902.651,1415.07L902.651,1445.45C903.119,1445.58 903.587,1445.71 904.054,1445.84C906.592,1447.17 911.718,1445.85 914.815,1445.84C924.625,1445.81 932.441,1447.27 941.014,1445.84C942.59,1441.87 941.482,1435 941.482,1430.26L941.482,1396.77C939.004,1393.93 942.346,1392.83 941.482,1389.37C939.259,1380.47 933.443,1375 920.429,1374.95ZM871.306,1374.95C869.735,1375.76 867.191,1375.17 865.224,1375.74C860.791,1377 856.453,1380.6 854.463,1383.91C853.442,1385.62 852.234,1389.43 853.06,1392.09C853.34,1393 854.386,1393.91 853.995,1395.6C851.99,1404.28 853.06,1416.04 853.06,1425.98C853.06,1432.36 852.194,1440.15 853.528,1445.84L854.463,1445.84C856.302,1446.81 862.002,1446.36 864.756,1446.23C873.133,1445.84 883.824,1447.18 891.891,1445.84L891.891,1445.06C893.654,1442.65 892.358,1426.81 892.358,1421.69C892.358,1413.05 893.057,1402.42 890.955,1395.6C891.111,1392.87 891.267,1390.14 891.423,1387.42C888.853,1379.54 882.827,1375.51 871.306,1374.95ZM1020.55,1374.95C1018.98,1375.75 1015.88,1375.22 1014,1375.74C1009.16,1377.06 1005.59,1380.12 1003.24,1383.52C999.801,1388.49 1003.57,1391.73 1002.3,1396.77C1001.12,1401.44 1001.83,1408.16 1001.83,1413.51L1001.83,1445.45C1002.3,1445.58 1002.77,1445.71 1003.24,1445.84C1005.66,1447.12 1010.72,1445.87 1013.53,1445.84C1022.57,1445.75 1032,1447.2 1040.2,1445.84C1041.73,1441.97 1040.66,1435.28 1040.66,1430.65L1040.66,1397.93C1038.14,1394.9 1041.14,1392.62 1040.2,1388.98C1038.78,1383.53 1035.07,1377.98 1029.44,1376.12C1026.47,1375.74 1023.51,1375.35 1020.55,1374.95ZM1068.27,1374.95C1066.95,1375.64 1064.79,1375.27 1063.12,1375.74C1059.4,1376.76 1055.23,1379.79 1053.3,1382.36C1051.83,1384.31 1049.88,1388.56 1050.96,1392.09C1051.16,1392.75 1052.35,1393.55 1051.89,1394.82C1050.08,1399.81 1050.49,1407.55 1050.49,1414.29L1050.49,1445.45C1050.96,1445.58 1051.42,1445.71 1051.89,1445.84C1054.07,1447.01 1058.85,1445.91 1061.25,1445.84C1068.27,1445.65 1075.85,1445.27 1081.37,1446.23C1083.88,1446.67 1087.61,1446.24 1088.85,1445.45C1090.23,1443.61 1089.32,1434.82 1089.32,1431.82L1089.32,1396.38C1087.01,1393.68 1090.83,1392.19 1089.79,1388.59C1087.36,1380.2 1080.95,1374.92 1068.27,1374.95ZM970.02,1374.95C968.464,1375.76 965.921,1375.23 963.938,1375.74C960.333,1376.66 956.417,1379.51 954.581,1381.97C953.161,1383.87 950.833,1387.97 951.774,1391.31C952.04,1392.26 953.245,1393.57 952.71,1395.21C951.033,1400.36 951.306,1408.57 951.306,1415.46L951.306,1445.45C951.774,1445.58 952.242,1445.71 952.71,1445.84C954.615,1446.82 956.364,1445.46 958.792,1445.84C963.153,1446.53 970.361,1445.84 976.102,1445.84C981.041,1445.84 985.475,1446.54 989.669,1445.84C989.825,1445.45 989.981,1445.06 990.137,1444.67C990.747,1443.7 990.137,1439.84 990.137,1437.66L990.137,1420.14C990.137,1412.01 991.387,1403.47 989.669,1396.77C988.839,1393.53 991.479,1392.09 991.073,1389.76C989.5,1380.72 982.357,1375.29 970.02,1374.95ZM406.03,1424.3L376.797,1435.03L538.949,1253.87L531.439,1285.32L406.03,1424.3ZM1497.75,1342.24C1495.31,1343.51 1491.46,1343.25 1488.86,1344.19C1482.97,1346.31 1476.77,1351.7 1474.35,1356.65C1471.2,1363.09 1472.01,1373 1472.01,1381.97C1472.01,1398.39 1472.4,1416.23 1472.95,1431.43C1474.2,1431.99 1474.92,1432.21 1477.16,1432.21C1479.38,1433.09 1488.13,1432.21 1492.13,1432.21C1504.65,1432.21 1521.42,1433.67 1532.83,1431.82C1534.14,1417.63 1534.24,1399.89 1534.24,1383.91C1534.24,1373.55 1534.65,1363.43 1530.96,1356.26C1525.83,1346.28 1515.36,1342.14 1497.75,1342.24ZM1427.57,1342.24C1425.69,1343.21 1422.77,1342.71 1420.55,1343.41C1415.36,1345.04 1409.96,1348.8 1406.98,1352.37C1397.86,1363.29 1401.37,1392.45 1401.37,1410.79C1401.37,1417.39 1399.92,1427.19 1403.24,1431.43C1404.63,1433.2 1414.41,1432.21 1417.74,1432.21L1461.25,1432.21C1461.73,1431.9 1461.38,1432.07 1462.19,1431.82C1463.6,1416.77 1463.59,1398.72 1463.59,1381.97C1463.59,1373.87 1464.67,1364.13 1461.72,1358.21C1456.24,1347.19 1446.8,1342.14 1427.57,1342.24ZM1356.46,1342.24C1353.81,1342.76 1351.15,1343.28 1348.5,1343.8C1343.13,1345.67 1337.86,1349.58 1334.94,1353.53C1329.93,1360.29 1330.26,1370.51 1330.26,1381.58C1330.26,1398.07 1330.75,1415.86 1331.66,1431.43C1335.49,1433.06 1344,1432.21 1349.44,1432.21L1390.61,1432.21C1390.77,1431.95 1390.92,1431.69 1391.08,1431.43C1392.91,1429.44 1392.48,1425.13 1392.48,1421.69L1392.48,1399.49C1392.48,1366.57 1397.7,1341.94 1356.46,1342.24ZM614.366,1329.3L608.53,1305.17L716.224,1424.29C716.224,1424.29 698.096,1419.42 693.923,1417.55C689.443,1415.55 614.366,1329.3 614.366,1329.3ZM452.293,1411.01L517.275,1337.74L525.233,1308.39L426.439,1417.67C426.439,1417.67 451.994,1410.61 452.293,1411.01ZM723,1391.81L594.049,1249.35L600.815,1281.68L723,1415.04L723,1391.81ZM633.786,1404.28L620.93,1352.86L674.688,1412.77C674.688,1412.77 639.389,1405.12 633.786,1404.28ZM500.852,1401.96L511.579,1361.09L470.544,1407.22L500.852,1401.96ZM527.268,1398.96C527.268,1398.96 550.952,1397.92 565.878,1398.02C580.803,1398.13 607.646,1400.81 607.646,1400.81L566.888,1240.17L527.268,1398.96ZM724.871,1360.14L581.596,1202.74L587.556,1225.74L723,1376.84L723,1368.33L724.403,1368.33L724.403,1367.56C725.43,1366.2 724.871,1362.6 724.871,1360.55L724.871,1360.14Z"/>
        </g>
        <g id="Shape-1" serif:id="Shape 1" transform="matrix(1,0,0,0.981342,0,19.7957)">
            <path d="M0,1477C0,1477 707.261,1458.54 1483,1458.54C2233.34,1458.54 2727,1475 2727,1475"/>
        </g>
        <g id="ανασα--ανασα-" serif:id="ανασα (ανασα)" transform="matrix(1.64925,0,0,1.60283,1350.68,2016.91)">
            <g transform="matrix(500,0,0,500,-654.25,-52.6541)">
                <path d="M0.461,-0.464C0.438,-0.464 0.419,-0.445 0.419,-0.421L0.419,-0.41C0.379,-0.444 0.328,-0.464 0.272,-0.464C0.143,-0.464 0.04,-0.358 0.04,-0.23C0.04,-0.102 0.143,0.001 0.272,0.001C0.328,0.001 0.379,-0.019 0.419,-0.051L0.419,-0.041C0.419,-0.018 0.438,0.001 0.461,0.001C0.485,0.001 0.504,-0.018 0.504,-0.041L0.504,-0.421C0.504,-0.445 0.485,-0.464 0.461,-0.464ZM0.272,-0.083C0.189,-0.083 0.124,-0.148 0.124,-0.23C0.124,-0.314 0.189,-0.379 0.272,-0.379C0.349,-0.379 0.411,-0.323 0.419,-0.248L0.419,-0.213C0.411,-0.139 0.349,-0.083 0.272,-0.083Z" style="fill-rule:nonzero;"/>
            </g>
            <g transform="matrix(500,0,0,500,-393.25,-52.6541)">
                <path d="M0.474,-0.459C0.467,-0.463 0.461,-0.465 0.456,-0.465C0.441,-0.465 0.426,-0.452 0.418,-0.439L0.418,-0.44L0.277,-0.141L0.133,-0.44C0.126,-0.455 0.11,-0.465 0.095,-0.465C0.089,-0.465 0.085,-0.464 0.082,-0.461C0.063,-0.453 0.054,-0.437 0.054,-0.422C0.054,-0.414 0.055,-0.408 0.058,-0.403L0.238,-0.023L0.237,-0.024C0.244,-0.011 0.26,-0 0.277,-0C0.292,-0 0.308,-0.008 0.313,-0.023L0.493,-0.403C0.496,-0.408 0.497,-0.414 0.497,-0.422C0.497,-0.437 0.49,-0.452 0.475,-0.459L0.474,-0.459Z" style="fill-rule:nonzero;"/>
            </g>
            <g transform="matrix(500,0,0,500,-141.25,-52.6541)">
                <path d="M0.461,-0.464C0.438,-0.464 0.419,-0.445 0.419,-0.421L0.419,-0.41C0.379,-0.444 0.328,-0.464 0.272,-0.464C0.143,-0.464 0.04,-0.358 0.04,-0.23C0.04,-0.102 0.143,0.001 0.272,0.001C0.328,0.001 0.379,-0.019 0.419,-0.051L0.419,-0.041C0.419,-0.018 0.438,0.001 0.461,0.001C0.485,0.001 0.504,-0.018 0.504,-0.041L0.504,-0.421C0.504,-0.445 0.485,-0.464 0.461,-0.464ZM0.272,-0.083C0.189,-0.083 0.124,-0.148 0.124,-0.23C0.124,-0.314 0.189,-0.379 0.272,-0.379C0.349,-0.379 0.411,-0.323 0.419,-0.248L0.419,-0.213C0.411,-0.139 0.349,-0.083 0.272,-0.083Z" style="fill:rgb(35,202,127);fill-rule:nonzero;"/>
            </g>
            <g transform="matrix(500,0,0,500,119.75,-52.6541)">
                <path d="M0.462,-0.379C0.485,-0.379 0.504,-0.398 0.504,-0.422C0.504,-0.446 0.485,-0.464 0.462,-0.464L0.262,-0.464C0.137,-0.459 0.039,-0.355 0.039,-0.23C0.039,-0.102 0.142,0.001 0.271,0.001C0.398,0.001 0.503,-0.102 0.503,-0.23C0.503,-0.286 0.483,-0.338 0.449,-0.379L0.462,-0.379ZM0.271,-0.083C0.188,-0.083 0.123,-0.148 0.123,-0.23C0.123,-0.314 0.188,-0.379 0.271,-0.379C0.354,-0.379 0.419,-0.314 0.419,-0.23C0.419,-0.148 0.354,-0.083 0.271,-0.083Z" style="fill-rule:nonzero;"/>
            </g>
            <g transform="matrix(500,0,0,500,380.75,-52.6541)">
                <path d="M0.461,-0.464C0.438,-0.464 0.419,-0.445 0.419,-0.421L0.419,-0.41C0.379,-0.444 0.328,-0.464 0.272,-0.464C0.143,-0.464 0.04,-0.358 0.04,-0.23C0.04,-0.102 0.143,0.001 0.272,0.001C0.328,0.001 0.379,-0.019 0.419,-0.051L0.419,-0.041C0.419,-0.018 0.438,0.001 0.461,0.001C0.485,0.001 0.504,-0.018 0.504,-0.041L0.504,-0.421C0.504,-0.445 0.485,-0.464 0.461,-0.464ZM0.272,-0.083C0.189,-0.083 0.124,-0.148 0.124,-0.23C0.124,-0.314 0.189,-0.379 0.272,-0.379C0.349,-0.379 0.411,-0.323 0.419,-0.248L0.419,-0.213C0.411,-0.139 0.349,-0.083 0.272,-0.083Z" style="fill-rule:nonzero;"/>
            </g>
        </g>
    </g>
</svg>
